<svg xmlns="http://www.w3.org/2000/svg" viewBox="0 0 100 100">
  <rect width="100" height="100" rx="15" fill="#F7DF1E"/>
  <path d="M72 70C72 75.8 67.8 80 61 80C54.8 80 50.8 76.2 50.8 70.8H56.8C56.8 73.2 58.6 74.8 61 74.8C63.2 74.8 64.8 73.8 64.8 71.4C64.8 69.2 63.6 68.2 60.2 66.8L57.2 65.6C52.4 63.6 50 61.2 50 56.4C50 51.6 54.2 48 60.2 48C65.8 48 69.6 51 69.6 56.2H63.6C63.6 54 62.2 52.8 60.2 52.8C58.4 52.8 57.2 53.6 57.2 55C57.2 56.4 58.2 57.2 61 58.4L64 59.6C69.4 61.8 72 64.4 72 70ZM41.8 80C35.8 80 32 76.2 32 70.8H38C38 73.2 39.2 74.8 41.8 74.8C44.2 74.8 45.4 73.6 45.4 69.2V48.8H51.4V69C51.4 76.4 47.8 80 41.8 80Z" fill="#1E1E24"/>
</svg>
